<svg aria-hidden="true" style="position: absolute; width: 0; height: 0; overflow: hidden;" version="1.1"
    xmlns="http://www.w3.org/2000/svg" xmlns:xlink="http://www.w3.org/1999/xlink">
    <defs>
        <symbol id="icon-wind" viewBox="0 0 32 32">
            <path
                d="M25 4c-1.326 0-2.598 0.527-3.536 1.464s-1.464 2.209-1.464 3.536c0 0.265-0.105 0.52-0.293 0.707s-0.442 0.293-0.707 0.293-0.52-0.105-0.707-0.293c-0.188-0.188-0.293-0.442-0.293-0.707 0-1.384 0.411-2.738 1.18-3.889s1.862-2.048 3.142-2.578c1.279-0.53 2.687-0.668 4.044-0.398s2.605 0.937 3.584 1.916c0.979 0.979 1.646 2.226 1.916 3.584s0.132 2.765-0.398 4.044c-0.53 1.279-1.427 2.372-2.578 3.142s-2.504 1.18-3.889 1.18h-24c-0.265 0-0.52-0.105-0.707-0.293s-0.293-0.442-0.293-0.707c0-0.265 0.105-0.52 0.293-0.707s0.442-0.293 0.707-0.293h24c1.326 0 2.598-0.527 3.536-1.464s1.464-2.209 1.464-3.536-0.527-2.598-1.464-3.536c-0.938-0.938-2.209-1.464-3.536-1.464zM11 6c-0.53 0-1.039 0.211-1.414 0.586s-0.586 0.884-0.586 1.414c0 0.265-0.105 0.52-0.293 0.707s-0.442 0.293-0.707 0.293c-0.265 0-0.52-0.105-0.707-0.293s-0.293-0.442-0.293-0.707c0-0.791 0.235-1.564 0.674-2.222s1.064-1.171 1.795-1.473c0.731-0.303 1.535-0.382 2.311-0.228s1.489 0.535 2.048 1.095c0.559 0.559 0.94 1.272 1.095 2.048s0.075 1.58-0.228 2.311c-0.303 0.731-0.815 1.356-1.473 1.795s-1.431 0.674-2.222 0.674h-10c-0.265 0-0.52-0.105-0.707-0.293s-0.293-0.442-0.293-0.707c0-0.265 0.105-0.52 0.293-0.707s0.442-0.293 0.707-0.293h10c0.53 0 1.039-0.211 1.414-0.586s0.586-0.884 0.586-1.414c0-0.53-0.211-1.039-0.586-1.414s-0.884-0.586-1.414-0.586zM0 19c0-0.265 0.105-0.52 0.293-0.707s0.442-0.293 0.707-0.293h20.084c1.187 0 2.347 0.352 3.333 1.011s1.756 1.596 2.21 2.693c0.454 1.096 0.573 2.303 0.341 3.467s-0.803 2.233-1.642 3.072c-0.839 0.839-1.908 1.411-3.072 1.642s-2.37 0.113-3.467-0.341c-1.096-0.454-2.033-1.223-2.693-2.21s-1.011-2.147-1.011-3.333c0-0.265 0.105-0.52 0.293-0.707s0.442-0.293 0.707-0.293c0.265 0 0.52 0.105 0.707 0.293s0.293 0.442 0.293 0.707c0 0.791 0.235 1.564 0.674 2.222s1.064 1.171 1.795 1.473 1.535 0.382 2.311 0.228c0.776-0.154 1.489-0.535 2.048-1.095s0.94-1.272 1.095-2.048c0.154-0.776 0.075-1.58-0.228-2.311s-0.816-1.356-1.473-1.795c-0.658-0.44-1.431-0.674-2.222-0.674h-20.084c-0.265 0-0.52-0.105-0.707-0.293s-0.293-0.442-0.293-0.707z">
            </path>
        </symbol>
        <symbol id="icon-fuel-pump" viewBox="0 0 32 32">
            <path
                d="M6 5c0-0.265 0.105-0.52 0.293-0.707s0.442-0.293 0.707-0.293h10c0.265 0 0.52 0.105 0.707 0.293s0.293 0.442 0.293 0.707v10c0 0.265-0.105 0.52-0.293 0.707s-0.442 0.293-0.707 0.293h-10c-0.265 0-0.52-0.105-0.707-0.293s-0.293-0.442-0.293-0.707v-10z">
            </path>
            <path
                d="M2 4c0-1.061 0.421-2.078 1.172-2.828s1.768-1.172 2.828-1.172h12c1.061 0 2.078 0.421 2.828 1.172s1.172 1.768 1.172 2.828v16c1.061 0 2.078 0.421 2.828 1.172s1.172 1.768 1.172 2.828v1c0 0.265 0.105 0.52 0.293 0.707s0.442 0.293 0.707 0.293 0.52-0.105 0.707-0.293c0.188-0.188 0.293-0.442 0.293-0.707v-9h-1c-0.265 0-0.52-0.105-0.707-0.293s-0.293-0.442-0.293-0.707v-6.25c0-0.265 0.105-0.52 0.293-0.707s0.442-0.293 0.707-0.293h2.99c-0.022-0.952-0.106-1.788-0.402-2.444-0.158-0.381-0.435-0.702-0.788-0.916-0.368-0.22-0.928-0.39-1.8-0.39-0.265 0-0.52-0.105-0.707-0.293s-0.293-0.442-0.293-0.707 0.105-0.52 0.293-0.707c0.188-0.188 0.442-0.293 0.707-0.293 1.128-0.003 2.069 0.221 2.824 0.672 0.766 0.456 1.268 1.102 1.588 1.814 0.59 1.31 0.588 2.93 0.588 4.162v6.35c0 0.132-0.025 0.262-0.076 0.383s-0.124 0.232-0.217 0.325c-0.093 0.093-0.203 0.167-0.325 0.217s-0.252 0.076-0.383 0.076h-1v9c0 0.796-0.316 1.559-0.879 2.121s-1.326 0.879-2.121 0.879-1.559-0.316-2.121-0.879c-0.563-0.563-0.879-1.326-0.879-2.121v-1c0-0.53-0.211-1.039-0.586-1.414s-0.884-0.586-1.414-0.586v8h1c0.265 0 0.52 0.105 0.707 0.293s0.293 0.442 0.293 0.707-0.105 0.52-0.293 0.707c-0.188 0.188-0.442 0.293-0.707 0.293h-22c-0.265 0-0.52-0.105-0.707-0.293s-0.293-0.442-0.293-0.707 0.105-0.52 0.293-0.707c0.188-0.188 0.442-0.293 0.707-0.293h1v-26zM20 4c0-0.53-0.211-1.039-0.586-1.414s-0.884-0.586-1.414-0.586h-12c-0.53 0-1.039 0.211-1.414 0.586s-0.586 0.884-0.586 1.414v26h16v-26z">
            </path>
        </symbol>
        <symbol id="icon-cup-hot" viewBox="0 0 32 32">
            <path
                d="M1 12c-0.15 0-0.297 0.034-0.432 0.098s-0.254 0.159-0.347 0.276c-0.094 0.117-0.16 0.253-0.194 0.399s-0.035 0.297-0.003 0.443l3.304 14.868c0.247 1.111 0.865 2.104 1.752 2.816s1.991 1.1 3.128 1.1h11.584c1.138-0 2.241-0.388 3.128-1.1s1.505-1.705 1.752-2.816l0.262-1.18c1.53 0.286 3.111-0.033 4.41-0.891s2.213-2.187 2.551-3.706 0.071-3.11-0.742-4.437c-0.814-1.327-2.111-2.285-3.618-2.674l0.442-1.98c0.032-0.146 0.032-0.298-0.003-0.443s-0.1-0.282-0.194-0.399c-0.094-0.117-0.212-0.211-0.347-0.276s-0.283-0.098-0.432-0.098h-26zM26 25c-0.212 0-0.423-0.017-0.632-0.050l1.734-7.796c0.925 0.268 1.722 0.86 2.246 1.669s0.738 1.778 0.604 2.732c-0.134 0.954-0.607 1.827-1.333 2.46s-1.656 0.983-2.619 0.985zM5.28 27.65l-3.034-13.65h23.508l-3.034 13.65c-0.148 0.666-0.519 1.262-1.051 1.69s-1.195 0.66-1.877 0.66h-11.584c-0.683-0-1.345-0.233-1.877-0.66s-0.903-1.023-1.051-1.69z">
            </path>
            <path
                d="M8.8 1.6l-0.006 0.008-0.028 0.038c-0.146 0.2-0.282 0.407-0.408 0.62-0.107 0.171-0.202 0.349-0.282 0.534-0.052 0.12-0.068 0.184-0.074 0.206v0.008c0.023 0.177 0.085 0.346 0.182 0.496 0.15 0.266 0.356 0.544 0.616 0.89l0.020 0.024c0.236 0.316 0.52 0.694 0.74 1.086 0.224 0.4 0.44 0.91 0.44 1.49 0 0.376-0.13 0.736-0.238 0.988-0.116 0.268-0.251 0.528-0.404 0.776-0.157 0.262-0.326 0.517-0.506 0.764l-0.036 0.050-0.010 0.016-0.004 0.004c-0.159 0.212-0.396 0.353-0.658 0.391s-0.529-0.030-0.742-0.189c-0.212-0.159-0.353-0.396-0.391-0.658s0.030-0.529 0.189-0.742l0.006-0.008 0.028-0.038c0.146-0.2 0.282-0.407 0.408-0.62 0.107-0.171 0.202-0.349 0.282-0.534 0.052-0.12 0.068-0.184 0.074-0.206-0.021-0.179-0.083-0.352-0.18-0.504-0.186-0.31-0.392-0.608-0.618-0.89l-0.020-0.024c-0.27-0.345-0.517-0.708-0.74-1.086-0.272-0.451-0.424-0.964-0.44-1.49 0-0.376 0.13-0.736 0.238-0.988 0.118-0.276 0.268-0.548 0.404-0.776 0.159-0.261 0.328-0.516 0.506-0.764l0.050-0.070c0.159-0.212 0.396-0.353 0.658-0.391s0.529 0.030 0.742 0.189c0.212 0.159 0.353 0.396 0.391 0.658s-0.030 0.529-0.189 0.742zM14.8 1.6l-0.006 0.008-0.028 0.038c-0.146 0.2-0.282 0.407-0.408 0.62-0.107 0.171-0.202 0.349-0.282 0.534-0.052 0.12-0.068 0.184-0.074 0.206v0.008c0.023 0.177 0.085 0.346 0.182 0.496 0.15 0.266 0.356 0.544 0.616 0.89l0.020 0.024c0.236 0.316 0.52 0.694 0.74 1.086 0.224 0.4 0.44 0.91 0.44 1.49 0 0.376-0.13 0.736-0.238 0.988-0.116 0.268-0.251 0.528-0.404 0.776-0.157 0.262-0.326 0.517-0.506 0.764l-0.036 0.050-0.010 0.016-0.004 0.004c-0.159 0.212-0.396 0.353-0.658 0.391s-0.529-0.030-0.742-0.189c-0.212-0.159-0.353-0.396-0.391-0.658s0.030-0.529 0.189-0.742l0.006-0.008 0.028-0.038c0.146-0.2 0.282-0.407 0.408-0.62 0.107-0.171 0.202-0.349 0.282-0.534 0.052-0.12 0.068-0.184 0.074-0.206-0.021-0.179-0.083-0.352-0.18-0.504-0.186-0.31-0.392-0.608-0.618-0.89l-0.020-0.024c-0.27-0.345-0.517-0.708-0.74-1.086-0.272-0.451-0.424-0.964-0.44-1.49 0-0.376 0.13-0.736 0.238-0.988 0.118-0.276 0.268-0.548 0.404-0.776 0.159-0.261 0.328-0.516 0.506-0.764l0.050-0.070c0.159-0.212 0.396-0.353 0.658-0.391s0.529 0.030 0.742 0.189c0.212 0.159 0.353 0.396 0.391 0.658s-0.030 0.529-0.189 0.742zM20.8 1.6l-0.006 0.008-0.028 0.038c-0.146 0.2-0.282 0.407-0.408 0.62-0.107 0.171-0.202 0.349-0.282 0.534-0.052 0.12-0.068 0.184-0.074 0.206v0.008c0.023 0.177 0.085 0.346 0.182 0.496 0.15 0.266 0.356 0.544 0.616 0.89l0.020 0.024c0.236 0.316 0.52 0.694 0.74 1.086 0.224 0.4 0.44 0.91 0.44 1.49 0 0.376-0.13 0.736-0.238 0.988-0.116 0.268-0.251 0.528-0.404 0.776-0.156 0.262-0.324 0.517-0.504 0.764l-0.038 0.050-0.010 0.016-0.004 0.004c-0.159 0.212-0.396 0.353-0.658 0.391s-0.529-0.030-0.742-0.189c-0.212-0.159-0.353-0.396-0.391-0.658s0.030-0.529 0.189-0.742l0.006-0.008 0.028-0.038c0.146-0.2 0.282-0.407 0.408-0.62 0.107-0.171 0.202-0.349 0.282-0.534 0.052-0.12 0.068-0.184 0.074-0.206-0.021-0.179-0.083-0.352-0.18-0.504-0.186-0.31-0.392-0.608-0.618-0.89l-0.020-0.024c-0.27-0.345-0.517-0.708-0.74-1.086-0.272-0.451-0.424-0.964-0.44-1.49 0-0.376 0.13-0.736 0.238-0.988 0.118-0.276 0.268-0.548 0.404-0.776 0.159-0.261 0.328-0.516 0.506-0.764l0.050-0.070c0.159-0.212 0.396-0.353 0.658-0.391s0.529 0.030 0.742 0.189c0.212 0.159 0.353 0.396 0.391 0.658s-0.030 0.529-0.189 0.742z">
            </path>
        </symbol>
        <symbol id="icon-radios" viewBox="0 0 32 32">
            <path
                d="M14 5c0-0.265 0.105-0.52 0.293-0.707s0.442-0.293 0.707-0.293h14c0.265 0 0.52 0.105 0.707 0.293s0.293 0.442 0.293 0.707v2c0 0.265-0.105 0.52-0.293 0.707s-0.442 0.293-0.707 0.293h-14c-0.265 0-0.52-0.105-0.707-0.293s-0.293-0.442-0.293-0.707v-2zM0 24c0-1.591 0.632-3.117 1.757-4.243s2.651-1.757 4.243-1.757 3.117 0.632 4.243 1.757c1.125 1.125 1.757 2.651 1.757 4.243s-0.632 3.117-1.757 4.243c-1.125 1.125-2.651 1.757-4.243 1.757s-3.117-0.632-4.243-1.757c-1.125-1.125-1.757-2.651-1.757-4.243zM14 21c0-0.265 0.105-0.52 0.293-0.707s0.442-0.293 0.707-0.293h14c0.265 0 0.52 0.105 0.707 0.293s0.293 0.442 0.293 0.707v2c0 0.265-0.105 0.52-0.293 0.707s-0.442 0.293-0.707 0.293h-14c-0.265 0-0.52-0.105-0.707-0.293s-0.293-0.442-0.293-0.707v-2zM14 11c0-0.265 0.105-0.52 0.293-0.707s0.442-0.293 0.707-0.293h10c0.265 0 0.52 0.105 0.707 0.293s0.293 0.442 0.293 0.707-0.105 0.52-0.293 0.707c-0.188 0.188-0.442 0.293-0.707 0.293h-10c-0.265 0-0.52-0.105-0.707-0.293s-0.293-0.442-0.293-0.707zM14 27c0-0.265 0.105-0.52 0.293-0.707s0.442-0.293 0.707-0.293h10c0.265 0 0.52 0.105 0.707 0.293s0.293 0.442 0.293 0.707-0.105 0.52-0.293 0.707c-0.188 0.188-0.442 0.293-0.707 0.293h-10c-0.265 0-0.52-0.105-0.707-0.293s-0.293-0.442-0.293-0.707zM6 2c-0.788 0-1.568 0.155-2.296 0.457s-1.389 0.744-1.947 1.301c-0.557 0.557-0.999 1.219-1.301 1.947s-0.457 1.508-0.457 2.296c0 0.788 0.155 1.568 0.457 2.296s0.744 1.389 1.301 1.947c0.557 0.557 1.219 0.999 1.947 1.301s1.508 0.457 2.296 0.457c1.591 0 3.117-0.632 4.243-1.757s1.757-2.651 1.757-4.243c0-1.591-0.632-3.117-1.757-4.243s-2.651-1.757-4.243-1.757zM6 11c-0.796 0-1.559-0.316-2.121-0.879s-0.879-1.326-0.879-2.121c0-0.796 0.316-1.559 0.879-2.121s1.326-0.879 2.121-0.879c0.796 0 1.559 0.316 2.121 0.879s0.879 1.326 0.879 2.121c0 0.796-0.316 1.559-0.879 2.121s-1.326 0.879-2.121 0.879z">
            </path>
        </symbol>
        <symbol id="icon-shower" viewBox="0 0 32 32">
            <path
                d="M8 29.5c0 0.297-0.088 0.587-0.253 0.833s-0.399 0.439-0.673 0.552c-0.274 0.114-0.576 0.143-0.867 0.085s-0.558-0.201-0.768-0.411c-0.21-0.21-0.353-0.477-0.411-0.768s-0.028-0.593 0.085-0.867c0.114-0.274 0.306-0.508 0.552-0.673s0.537-0.253 0.833-0.253c0.398 0 0.779 0.158 1.061 0.439s0.439 0.663 0.439 1.061zM10.5 24c-0.297 0-0.587 0.088-0.833 0.253s-0.439 0.399-0.552 0.673c-0.114 0.274-0.143 0.576-0.085 0.867s0.201 0.558 0.411 0.768c0.21 0.21 0.477 0.353 0.768 0.411s0.593 0.028 0.867-0.085c0.274-0.113 0.508-0.306 0.673-0.552s0.253-0.537 0.253-0.833c0-0.398-0.158-0.779-0.439-1.061s-0.663-0.439-1.061-0.439zM2.5 24c-0.297 0-0.587 0.088-0.833 0.253s-0.439 0.399-0.552 0.673c-0.114 0.274-0.143 0.576-0.085 0.867s0.201 0.558 0.411 0.768c0.21 0.21 0.477 0.353 0.768 0.411s0.593 0.028 0.867-0.085c0.274-0.113 0.508-0.306 0.673-0.552s0.253-0.537 0.253-0.833c0-0.398-0.158-0.779-0.439-1.061s-0.663-0.439-1.061-0.439zM6.5 20c-0.297 0-0.587 0.088-0.833 0.253s-0.439 0.399-0.552 0.673c-0.114 0.274-0.143 0.576-0.085 0.867s0.201 0.558 0.411 0.768c0.21 0.21 0.477 0.353 0.768 0.411s0.593 0.028 0.867-0.085c0.274-0.113 0.508-0.306 0.673-0.552s0.253-0.537 0.253-0.833c0-0.398-0.158-0.779-0.439-1.061s-0.663-0.439-1.061-0.439zM32 5c0 0.265-0.105 0.52-0.293 0.707s-0.442 0.293-0.707 0.293h-3.586l-3.481 3.482-2.708 15.849c-0.061 0.362-0.22 0.7-0.461 0.978s-0.553 0.483-0.902 0.595c-0.35 0.112-0.724 0.125-1.080 0.039s-0.683-0.27-0.943-0.529l-12.25-12.25c-0.26-0.26-0.443-0.586-0.53-0.944s-0.073-0.732 0.039-1.082c0.112-0.35 0.319-0.662 0.597-0.903s0.617-0.399 0.98-0.46l15.842-2.709 3.775-3.775c0.093-0.093 0.203-0.166 0.325-0.217s0.252-0.076 0.383-0.076h4c0.265 0 0.52 0.105 0.707 0.293s0.293 0.442 0.293 0.707zM21.776 10.224l-14.776 2.526 12.25 12.25 2.526-14.776z">
            </path>
        </symbol>
        <symbol id="icon-fridge" viewBox="0 0 32 32">
            <path
                d="M23.667 9.333c0-0.265-0.105-0.52-0.293-0.707s-0.442-0.293-0.707-0.293c-0.265 0-0.52 0.105-0.707 0.293s-0.293 0.442-0.293 0.707v2.667c0 0.265 0.105 0.52 0.293 0.707s0.442 0.293 0.707 0.293c0.265 0 0.52-0.105 0.707-0.293s0.293-0.442 0.293-0.707v-2.667zM23.667 18.667c0-0.265-0.105-0.52-0.293-0.707s-0.442-0.293-0.707-0.293c-0.265 0-0.52 0.105-0.707 0.293s-0.293 0.442-0.293 0.707v2.667c0 0.265 0.105 0.52 0.293 0.707s0.442 0.293 0.707 0.293c0.265 0 0.52-0.105 0.707-0.293s0.293-0.442 0.293-0.707v-2.667z">
            </path>
            <path
                d="M16.075 1.667h-0.149c-2.451 0-4.392 0-5.911 0.204-1.563 0.211-2.828 0.653-3.827 1.651-0.997 0.999-1.44 2.264-1.651 3.827-0.204 1.52-0.204 3.46-0.204 5.911v4.149c0 2.451 0 4.392 0.204 5.911 0.211 1.563 0.653 2.828 1.651 3.827 0.613 0.612 1.325 1.015 2.145 1.284v0.904c0 0.552 0.448 1 1 1h1.333c0.265 0 0.52-0.105 0.707-0.293s0.293-0.442 0.293-0.707v-0.395c1.209 0.061 2.62 0.061 4.259 0.061h0.149c1.64 0 3.049 0 4.259-0.061v0.395c0 0.552 0.448 1 1 1h1.333c0.265 0 0.52-0.105 0.707-0.293s0.293-0.442 0.293-0.707v-0.904c0.82-0.269 1.533-0.672 2.145-1.284 0.997-0.999 1.44-2.264 1.651-3.827 0.204-1.52 0.204-3.46 0.204-5.911v-4.148c0-2.451 0-4.392-0.204-5.911-0.211-1.563-0.653-2.828-1.651-3.827-0.999-0.997-2.264-1.44-3.827-1.651-1.52-0.204-3.46-0.204-5.911-0.204zM7.603 4.936c0.564-0.564 1.337-0.903 2.679-1.083 1.371-0.184 3.176-0.187 5.719-0.187s4.349 0.003 5.72 0.187c1.34 0.18 2.113 0.519 2.677 1.083s0.903 1.337 1.083 2.679c0.184 1.371 0.187 3.176 0.187 5.719v1h-19.333v-1c0-2.543 0.003-4.348 0.187-5.72 0.18-1.34 0.519-2.113 1.083-2.677zM6.333 16.333h19.333v1c0 2.543-0.003 4.349-0.187 5.72-0.18 1.34-0.519 2.113-1.083 2.677s-1.337 0.903-2.679 1.083c-1.371 0.184-3.176 0.187-5.719 0.187s-4.348-0.003-5.72-0.187c-1.34-0.18-2.113-0.519-2.677-1.083s-0.903-1.337-1.083-2.679c-0.184-1.369-0.187-3.176-0.187-5.719v-1z">
            </path>
        </symbol>

        <symbol id="icon-tv" viewBox="0 0 32 32">
            <path
                d="M0 8c0 0 0-4 4-4h24c0 0 4 0 4 4v12c0 0 0 4-4 4h-8c0 1.333 0.167 2.333 0.5 3h1.5c0.265 0 0.52 0.105 0.707 0.293s0.293 0.442 0.293 0.707c0 0.265-0.105 0.52-0.293 0.707s-0.442 0.293-0.707 0.293h-12c-0.265 0-0.52-0.105-0.707-0.293s-0.293-0.442-0.293-0.707c0-0.265 0.105-0.52 0.293-0.707s0.442-0.293 0.707-0.293h1.5c0.333-0.667 0.5-1.667 0.5-3h-8c0 0-4 0-4-4v-12zM2.796 6.29c-0.22 0.153-0.395 0.361-0.508 0.604-0.168 0.353-0.266 0.735-0.288 1.126v11.98c0 0.65 0.156 1.004 0.29 1.204 0.14 0.208 0.341 0.377 0.604 0.508 0.338 0.162 0.703 0.259 1.076 0.286l0.050 0.002h23.98c0.65 0 1.004-0.156 1.204-0.29 0.22-0.153 0.395-0.361 0.508-0.604 0.162-0.338 0.259-0.703 0.286-1.076l0.002-0.050v-11.98c0-0.65-0.156-1.004-0.29-1.204-0.153-0.22-0.361-0.395-0.604-0.508-0.353-0.168-0.736-0.266-1.126-0.288h-23.98c-0.65 0-1.004 0.156-1.204 0.29z">
            </path>
        </symbol>
        <symbol id="icon-grid-1x2" viewBox="0 0 32 32">
            <path
                d="M12 2h-10v28h10v-28zM30 2h-10v10h10v-10zM30 20v10h-10v-10h10zM0 2c0-0.53 0.211-1.039 0.586-1.414s0.884-0.586 1.414-0.586h10c0.53 0 1.039 0.211 1.414 0.586s0.586 0.884 0.586 1.414v28c0 0.53-0.211 1.039-0.586 1.414s-0.884 0.586-1.414 0.586h-10c-0.53 0-1.039-0.211-1.414-0.586s-0.586-0.884-0.586-1.414v-28zM18 2c0-0.53 0.211-1.039 0.586-1.414s0.884-0.586 1.414-0.586h10c0.53 0 1.039 0.211 1.414 0.586s0.586 0.884 0.586 1.414v10c0 0.53-0.211 1.039-0.586 1.414s-0.884 0.586-1.414 0.586h-10c-0.53 0-1.039-0.211-1.414-0.586s-0.586-0.884-0.586-1.414v-10zM20 18c-0.53 0-1.039 0.211-1.414 0.586s-0.586 0.884-0.586 1.414v10c0 0.53 0.211 1.039 0.586 1.414s0.884 0.586 1.414 0.586h10c0.53 0 1.039-0.211 1.414-0.586s0.586-0.884 0.586-1.414v-10c0-0.53-0.211-1.039-0.586-1.414s-0.884-0.586-1.414-0.586h-10z">
            </path>
        </symbol>
        <symbol id="icon-grid-2x2" viewBox="0 0 32 32">
            <path
                d="M2 5c0-0.796 0.316-1.559 0.879-2.121s1.326-0.879 2.121-0.879h6c0.796 0 1.559 0.316 2.121 0.879s0.879 1.326 0.879 2.121v6c0 0.796-0.316 1.559-0.879 2.121s-1.326 0.879-2.121 0.879h-6c-0.796 0-1.559-0.316-2.121-0.879s-0.879-1.326-0.879-2.121v-6zM5 4c-0.265 0-0.52 0.105-0.707 0.293s-0.293 0.442-0.293 0.707v6c0 0.265 0.105 0.52 0.293 0.707s0.442 0.293 0.707 0.293h6c0.265 0 0.52-0.105 0.707-0.293s0.293-0.442 0.293-0.707v-6c0-0.265-0.105-0.52-0.293-0.707s-0.442-0.293-0.707-0.293h-6zM18 5c0-0.796 0.316-1.559 0.879-2.121s1.326-0.879 2.121-0.879h6c0.796 0 1.559 0.316 2.121 0.879s0.879 1.326 0.879 2.121v6c0 0.796-0.316 1.559-0.879 2.121s-1.326 0.879-2.121 0.879h-6c-0.796 0-1.559-0.316-2.121-0.879s-0.879-1.326-0.879-2.121v-6zM21 4c-0.265 0-0.52 0.105-0.707 0.293s-0.293 0.442-0.293 0.707v6c0 0.265 0.105 0.52 0.293 0.707s0.442 0.293 0.707 0.293h6c0.265 0 0.52-0.105 0.707-0.293s0.293-0.442 0.293-0.707v-6c0-0.265-0.105-0.52-0.293-0.707s-0.442-0.293-0.707-0.293h-6zM2 21c0-0.796 0.316-1.559 0.879-2.121s1.326-0.879 2.121-0.879h6c0.796 0 1.559 0.316 2.121 0.879s0.879 1.326 0.879 2.121v6c0 0.796-0.316 1.559-0.879 2.121s-1.326 0.879-2.121 0.879h-6c-0.796 0-1.559-0.316-2.121-0.879s-0.879-1.326-0.879-2.121v-6zM5 20c-0.265 0-0.52 0.105-0.707 0.293s-0.293 0.442-0.293 0.707v6c0 0.265 0.105 0.52 0.293 0.707s0.442 0.293 0.707 0.293h6c0.265 0 0.52-0.105 0.707-0.293s0.293-0.442 0.293-0.707v-6c0-0.265-0.105-0.52-0.293-0.707s-0.442-0.293-0.707-0.293h-6zM18 21c0-0.796 0.316-1.559 0.879-2.121s1.326-0.879 2.121-0.879h6c0.796 0 1.559 0.316 2.121 0.879s0.879 1.326 0.879 2.121v6c0 0.796-0.316 1.559-0.879 2.121s-1.326 0.879-2.121 0.879h-6c-0.796 0-1.559-0.316-2.121-0.879s-0.879-1.326-0.879-2.121v-6zM21 20c-0.265 0-0.52 0.105-0.707 0.293s-0.293 0.442-0.293 0.707v6c0 0.265 0.105 0.52 0.293 0.707s0.442 0.293 0.707 0.293h6c0.265 0 0.52-0.105 0.707-0.293s0.293-0.442 0.293-0.707v-6c0-0.265-0.105-0.52-0.293-0.707s-0.442-0.293-0.707-0.293h-6z">
            </path>
        </symbol>
        <symbol id="icon-grid-3x3" viewBox="0 0 32 32">
            <path
                d="M8 4v4h-4v-4h4zM10 28v-4c0-0.53-0.211-1.039-0.586-1.414s-0.884-0.586-1.414-0.586h-4c-0.53 0-1.039 0.211-1.414 0.586s-0.586 0.884-0.586 1.414v4c0 0.53 0.211 1.039 0.586 1.414s0.884 0.586 1.414 0.586h4c0.53 0 1.039-0.211 1.414-0.586s0.586-0.884 0.586-1.414zM10 18v-4c0-0.53-0.211-1.039-0.586-1.414s-0.884-0.586-1.414-0.586h-4c-0.53 0-1.039 0.211-1.414 0.586s-0.586 0.884-0.586 1.414v4c0 0.53 0.211 1.039 0.586 1.414s0.884 0.586 1.414 0.586h4c0.53 0 1.039-0.211 1.414-0.586s0.586-0.884 0.586-1.414zM10 8v-4c0-0.53-0.211-1.039-0.586-1.414s-0.884-0.586-1.414-0.586h-4c-0.53 0-1.039 0.211-1.414 0.586s-0.586 0.884-0.586 1.414v4c0 0.53 0.211 1.039 0.586 1.414s0.884 0.586 1.414 0.586h4c0.53 0 1.039-0.211 1.414-0.586s0.586-0.884 0.586-1.414zM20 28v-4c0-0.53-0.211-1.039-0.586-1.414s-0.884-0.586-1.414-0.586h-4c-0.53 0-1.039 0.211-1.414 0.586s-0.586 0.884-0.586 1.414v4c0 0.53 0.211 1.039 0.586 1.414s0.884 0.586 1.414 0.586h4c0.53 0 1.039-0.211 1.414-0.586s0.586-0.884 0.586-1.414zM20 18v-4c0-0.53-0.211-1.039-0.586-1.414s-0.884-0.586-1.414-0.586h-4c-0.53 0-1.039 0.211-1.414 0.586s-0.586 0.884-0.586 1.414v4c0 0.53 0.211 1.039 0.586 1.414s0.884 0.586 1.414 0.586h4c0.53 0 1.039-0.211 1.414-0.586s0.586-0.884 0.586-1.414zM20 8v-4c0-0.53-0.211-1.039-0.586-1.414s-0.884-0.586-1.414-0.586h-4c-0.53 0-1.039 0.211-1.414 0.586s-0.586 0.884-0.586 1.414v4c0 0.53 0.211 1.039 0.586 1.414s0.884 0.586 1.414 0.586h4c0.53 0 1.039-0.211 1.414-0.586s0.586-0.884 0.586-1.414zM18 4v4h-4v-4h4zM28 4v4h-4v-4h4zM8 14v4h-4v-4h4zM18 14v4h-4v-4h4zM28 14h-4v4h4v-4zM8 24v4h-4v-4h4zM18 24v4h-4v-4h4zM28 24v4h-4v-4h4zM24 2c-0.53 0-1.039 0.211-1.414 0.586s-0.586 0.884-0.586 1.414v4c0 0.53 0.211 1.039 0.586 1.414s0.884 0.586 1.414 0.586h4c0.53 0 1.039-0.211 1.414-0.586s0.586-0.884 0.586-1.414v-4c0-0.53-0.211-1.039-0.586-1.414s-0.884-0.586-1.414-0.586h-4zM22 14c0-0.53 0.211-1.039 0.586-1.414s0.884-0.586 1.414-0.586h4c0.53 0 1.039 0.211 1.414 0.586s0.586 0.884 0.586 1.414v4c0 0.53-0.211 1.039-0.586 1.414s-0.884 0.586-1.414 0.586h-4c-0.53 0-1.039-0.211-1.414-0.586s-0.586-0.884-0.586-1.414v-4zM24 22c-0.53 0-1.039 0.211-1.414 0.586s-0.586 0.884-0.586 1.414v4c0 0.53 0.211 1.039 0.586 1.414s0.884 0.586 1.414 0.586h4c0.53 0 1.039-0.211 1.414-0.586s0.586-0.884 0.586-1.414v-4c0-0.53-0.211-1.039-0.586-1.414s-0.884-0.586-1.414-0.586h-4z">
            </path>
        </symbol>
        <symbol id="icon-heart" viewBox="0 0 32 32">
            <path
                d="M16 13.139l-1.788-3.578c-0.444-0.886-1.214-2.16-2.304-3.19-1.072-1.014-2.356-1.704-3.908-1.704-3.352 0-6 2.652-6 5.84 0 2.422 1.108 4.132 3.736 6.74 0.674 0.668 1.442 1.39 2.292 2.186 2.216 2.080 4.972 4.668 7.972 8.128 3-3.46 5.756-6.048 7.972-8.128 0.85-0.796 1.62-1.52 2.292-2.186 2.628-2.608 3.736-4.318 3.736-6.74 0-3.188-2.648-5.84-6-5.84-1.554 0-2.836 0.69-3.908 1.704-1.090 1.030-1.86 2.304-2.304 3.19l-1.788 3.578zM16.784 29.723c-0.096 0.114-0.216 0.206-0.352 0.269s-0.283 0.095-0.432 0.095-0.297-0.033-0.432-0.095c-0.135-0.063-0.255-0.155-0.352-0.269-3.202-3.804-6.1-6.524-8.486-8.762-4.13-3.878-6.73-6.316-6.73-10.454 0-4.33 3.58-7.84 8-7.84 3.2 0 5.438 2.1 6.808 4.016 0.52 0.73 0.916 1.432 1.192 1.984 0.346-0.691 0.745-1.354 1.192-1.984 1.37-1.918 3.608-4.016 6.808-4.016 4.42 0 8 3.51 8 7.84 0 4.138-2.6 6.576-6.73 10.454-2.386 2.24-5.284 4.962-8.486 8.762z">
            </path>
        </symbol>
        <symbol id="icon-star" viewBox="0 0 32 32">
            <path
                d="M15.116 1.676c0.375-0.711 1.394-0.711 1.769 0l3.777 7.158c0.145 0.274 0.408 0.466 0.714 0.519l7.975 1.38c0.792 0.137 1.107 1.106 0.547 1.682l-5.641 5.804c-0.216 0.222-0.317 0.532-0.273 0.839l1.152 8.010c0.114 0.796-0.71 1.395-1.431 1.040l-7.263-3.571c-0.278-0.137-0.604-0.137-0.882 0l-7.262 3.571c-0.722 0.355-1.546-0.244-1.431-1.040l1.152-8.010c0.044-0.307-0.057-0.617-0.273-0.839l-5.64-5.804c-0.56-0.577-0.246-1.545 0.547-1.682l7.974-1.38c0.306-0.053 0.569-0.244 0.714-0.519l3.776-7.158z">
            </path>
        </symbol>
        <symbol id="icon-map" viewBox="0 0 32 32">
            <path
                d="M31.634 0.226c0.115 0.094 0.207 0.212 0.27 0.346s0.096 0.28 0.096 0.428v28c-0 0.231-0.080 0.455-0.227 0.634s-0.351 0.301-0.577 0.346l-10 2c-0.129 0.026-0.263 0.026-0.392 0l-9.804-1.96-9.804 1.96c-0.145 0.029-0.295 0.025-0.438-0.010s-0.277-0.103-0.392-0.197c-0.114-0.094-0.207-0.212-0.27-0.345s-0.096-0.28-0.096-0.428v-28c0-0.231 0.080-0.455 0.227-0.634s0.351-0.301 0.577-0.346l10-2c0.129-0.026 0.263-0.026 0.392 0l9.804 1.96 9.804-1.96c0.145-0.029 0.295-0.026 0.438 0.010s0.277 0.103 0.392 0.196zM20 3.82l-8-1.6v25.96l8 1.6v-25.96zM22 29.78l8-1.6v-25.96l-8 1.6v25.96zM10 28.18v-25.96l-8 1.6v25.96l8-1.6z">
            </path>
        </symbol>
        <symbol id="icon-automatic" viewBox="0 0 32 32">
            <path
                d="M23.667 19v-6c0-0.441 0.288-0.829 0.71-0.957s0.877 0.036 1.122 0.402l2.168 3.252v-2.697c0-0.552 0.448-1 1-1s1 0.448 1 1v6c0 0.441-0.288 0.829-0.71 0.957s-0.877-0.036-1.122-0.402l-2.168-3.252v2.697c0 0.552-0.448 1-1 1s-1-0.448-1-1z">
            </path>
            <path
                d="M27.667 27c0-0.796-0.316-1.559-0.879-2.121-0.319-0.319-0.703-0.559-1.121-0.707v5.657c0.418-0.148 0.802-0.388 1.121-0.707 0.563-0.563 0.879-1.326 0.879-2.121zM29.667 27c0 1.326-0.527 2.598-1.465 3.536s-2.209 1.464-3.535 1.464c-0.552 0-1-0.448-1-1v-8c0-0.552 0.448-1 1-1 1.326 0 2.598 0.527 3.535 1.464s1.465 2.209 1.465 3.536z">
            </path>
            <path
                d="M27.667 3c0-0.257-0.099-0.504-0.276-0.689l-0.017-0.018c-0.187-0.188-0.442-0.293-0.707-0.293h-1v2h1c0.265 0 0.52-0.105 0.707-0.293s0.293-0.442 0.293-0.707zM29.667 3c0 0.796-0.316 1.559-0.879 2.121s-1.326 0.879-2.121 0.879h-1v3c0 0.552-0.448 1-1 1s-1-0.448-1-1v-8c0-0.552 0.448-1 1-1h2c0.796 0 1.559 0.316 2.121 0.879s0.879 1.326 0.879 2.121z">
            </path>
            <path
                d="M11.667 25v-6c0-0.265-0.105-0.52-0.293-0.707s-0.442-0.293-0.707-0.293h-2c-0.796 0-1.559-0.316-2.121-0.879s-0.879-1.326-0.879-2.121v-6c0-0.552 0.448-1 1-1s1 0.448 1 1v6c0 0.265 0.105 0.52 0.293 0.707s0.442 0.293 0.707 0.293h2c0.796 0 1.559 0.316 2.121 0.879s0.879 1.326 0.879 2.121v6c0 0.265 0.105 0.52 0.293 0.707l0 0c0.187 0.187 0.442 0.293 0.707 0.293h3.621c0.552 0 1 0.448 1 1s-0.448 1-1 1h-3.621c-0.796 0-1.559-0.316-2.121-0.879v-0c-0.563-0.563-0.879-1.326-0.879-2.121z">
            </path>
            <path
                d="M9.667 5c0-1.657-1.343-3-3-3s-3 1.343-3 3 1.343 3 3 3c1.657 0 3-1.343 3-3zM11.667 5c0 2.761-2.239 5-5 5s-5-2.239-5-5 2.239-5 5-5c2.761 0 5 2.239 5 5z">
            </path>
        </symbol>



        <symbol id="icon-petrol" viewBox="0 0 32 32">
            <path
                d="M15.652 4.174h-8.348c-0.576 0-1.043 0.467-1.043 1.043v4.174c0 0.576 0.467 1.043 1.043 1.043h8.348c0.576 0 1.044-0.467 1.044-1.043v-4.174c-0-0.576-0.467-1.043-1.043-1.043zM14.609 8.348h-6.261v-2.087h6.261v2.087z">
            </path>
            <path
                d="M30.956 6.957h-4.87c-1.726 0-3.13 1.404-3.13 3.13v10.435c0 0.575-0.468 1.044-1.044 1.044h-1.044v-18.435c0-1.726-1.404-3.13-3.13-3.13h-12.522c-1.726 0-3.13 1.404-3.13 3.13v26.783h-1.043c-0.576 0-1.044 0.467-1.044 1.043s0.467 1.043 1.044 1.043c0.567 0 20.319 0 20.87 0 0.576 0 1.044-0.467 1.044-1.044s-0.467-1.044-1.044-1.044h-1.044v-6.261h1.044c1.726 0 3.13-1.404 3.13-3.13v-7.304h1.044c1.726 0 3.13-1.404 3.13-3.13v-1.043h1.739c0.576 0 1.044-0.467 1.044-1.043s-0.467-1.043-1.044-1.043zM18.783 29.913h-14.609v-15.304h14.609v15.304zM18.783 12.522h-14.609v-9.391c0-0.575 0.468-1.043 1.043-1.043h12.522c0.575 0 1.044 0.468 1.044 1.043v9.391zM27.13 10.087c0 0.575-0.468 1.043-1.044 1.043h-1.044v-1.043c0-0.575 0.468-1.043 1.044-1.043h1.044v1.043z">
            </path>
            <path
                d="M14.191 21.047l-1.809-3.134c-0.186-0.323-0.531-0.522-0.904-0.522s-0.717 0.199-0.904 0.522l-1.809 3.134c-0.273 0.474-0.418 1.013-0.418 1.561 0 1.726 1.404 3.13 3.13 3.13s3.13-1.404 3.13-3.13c0-0.749-0.241-1.208-0.418-1.561zM11.478 23.652c-0.575 0-1.043-0.468-1.043-1.044 0-0.362 0.061-0.384 1.043-2.087 0.985 1.706 1.043 1.726 1.043 2.087 0 0.575-0.468 1.044-1.043 1.044z">
            </path>
        </symbol>
        <symbol id="icon-hybrid" viewBox="0 0 32 32">
            <path
                d="M21.217 0.696h-2.783c-0.277 0-0.542 0.11-0.738 0.306l-1.36 1.36c-2.255-1.548-4.878-2.361-7.641-2.361h-5.217c-1.151 0-2.087 0.936-2.087 2.087v2.087c0 1.151 0.936 2.087 2.087 2.087h5.217c1.095 0 2.158 0.242 3.13 0.706v6.599c0 1.726 1.404 3.13 3.13 3.13h1.044v3.13c0 2.877 2.34 5.217 5.217 5.217h3.13v4.87c0 1.151 0.936 2.087 2.087 2.087h2.087c1.151 0 2.087-0.936 2.087-2.087v-19.826c0-5.178-4.213-9.391-9.391-9.391zM8.696 4.174h-5.217v-2.087h5.217c2.204 0 4.303 0.612 6.136 1.78l-1.522 1.522c-1.404-0.796-2.982-1.215-4.614-1.215zM24.348 22.956h-3.13c-1.726 0-3.13-1.404-3.13-3.13v-3.13h3.13c0.322 0 0.633 0.049 0.926 0.14-0.223 0.859-0.757 1.624-1.505 2.122-0.48 0.32-0.609 0.968-0.289 1.447s0.968 0.609 1.447 0.289c0.93-0.62 1.65-1.501 2.085-2.51 0.296 0.478 0.467 1.040 0.467 1.642v3.131zM28.522 29.913h-2.087v-4.87h2.087v4.87zM28.522 22.956h-2.087v-3.13c0-2.881-2.348-5.217-5.217-5.217h-6.261c-0.575 0-1.043-0.468-1.043-1.043v-5.829l4.954-4.954h2.35c4.028 0 7.304 3.277 7.304 7.304v12.87z">
            </path>
        </symbol>
        <symbol id="icon-diesel" viewBox="0 0 32 32">
            <path
                d="M12.522 9.397c-0.001-0.575-0.466-1.042-1.042-1.043l-4.176-0.007c-1.726 0-3.13 1.404-3.13 3.13v6.261c0 0.576 0.467 1.044 1.043 1.044h6.268c0.576 0 1.044-0.468 1.043-1.044l-0.007-8.341zM6.261 16.696v-5.217c0-0.575 0.468-1.050 1.042-1.050l3.133 0.005 0.005 6.263h-4.18z">
            </path>
            <path
                d="M30.343 21.125l-2.087-2.336c-0.636-0.712-1.822-0.262-1.822 0.695v3.032c0 0.192-0.156 0.348-0.348 0.348s-0.348-0.156-0.348-0.348v-1.648c0-0.713 0-19.114 0-19.825-0-0.576-0.467-1.044-1.044-1.044h-6.956c-0.576 0-1.044 0.467-1.044 1.044v3.13h-9.391c-4.028 0-7.304 3.277-7.304 7.304v17.391c0 1.726 1.404 3.13 3.13 3.13h19.478c0.278 0 0.551-0.037 0.816-0.108 0.417 0.071 0.842 0.108 1.271 0.108 4.056 0 7.304-3.223 7.304-6.701 0-2.293-1.589-4.098-1.657-4.174zM18.783 2.087h4.87v2.087h-4.87v-2.087zM2.087 11.478c0-2.877 2.341-5.217 5.217-5.217 0.602 0 14.928 0 16.348 0v9.549c-0.974-0.979-2.22-1.667-3.577-1.96l-0.029-0.006c-0.442-0.095-0.896 0.103-1.123 0.494s-0.179 0.881 0.122 1.218c0.011 0.013 1.129 1.302 1.129 2.786s-1.117 2.773-1.126 2.783c-0.050 0.056-0.941 1.069-1.395 2.527h-15.566v-12.174zM3.13 29.913c-0.575 0-1.043-0.468-1.043-1.044v-3.13h15.324c0.13 1.495 0.95 3.114 2.064 4.174h-16.345zM24.696 29.913c-2.926 0-5.217-2.311-5.217-4.614 0-1.484 1.117-2.773 1.126-2.783 0.068-0.076 1.657-1.881 1.657-4.174 0-0.374-0.042-0.735-0.113-1.078 0.934 0.934 1.505 2.22 1.505 3.604v1.648c0 1.343 1.092 2.435 2.435 2.435s2.435-1.092 2.435-2.435v-0.297l0.263 0.295c0.033 0.038 1.128 1.316 1.128 2.785-0 2.301-2.291 4.614-5.218 4.614z">
            </path>
        </symbol>
        <symbol id="icon-microwave" viewBox="0 0 32 32">
            <path
                d="M28.334 8.001c0-0.92-0.747-1.667-1.667-1.667h-21.333c-0.92 0-1.667 0.747-1.667 1.667v14.666c0 0.92 0.747 1.667 1.667 1.667h21.333c0.92 0 1.667-0.747 1.667-1.667v-14.666zM30.334 22.666c0 2.025-1.642 3.667-3.667 3.667h-21.333c-2.025 0-3.667-1.642-3.667-3.667v-14.666c0-2.025 1.642-3.667 3.667-3.667h21.333c2.025 0 3.667 1.642 3.667 3.667v14.666z">
            </path>
            <path
                d="M17.667 11.999c-0-0.184-0.15-0.333-0.334-0.333h-8c-0.184 0-0.333 0.149-0.333 0.333v6.667c0 0.184 0.149 0.332 0.333 0.333h8c0.184 0 0.334-0.149 0.334-0.333v-6.667zM19.667 18.667c0 1.289-1.046 2.333-2.334 2.333h-8c-1.288-0-2.333-1.044-2.333-2.333v-6.667c0-1.288 1.045-2.333 2.333-2.333h8c1.288 0 2.334 1.044 2.334 2.333v6.667z">
            </path>
            <path
                d="M7 28v-2.666c0-0.552 0.448-1 1-1s1 0.448 1 1v2.666c0 0.552-0.448 1-1 1s-1-0.448-1-1zM23 28v-2.666c0-0.552 0.448-1 1-1s1 0.448 1 1v2.666c0 0.552-0.448 1-1 1s-1-0.448-1-1zM23 20v-9.333c0-0.552 0.448-1 1-1s1 0.448 1 1v9.333c0 0.552-0.448 1-1 1s-1-0.448-1-1z">
            </path>
        </symbol>
        <symbol id="icon-water" viewBox="0 0 32 32">
            <path
                d="M24 20c0-2.666-1.477-5.943-3.325-8.953-1.709-2.784-3.64-5.185-4.675-6.411-1.035 1.226-2.966 3.627-4.675 6.411-1.848 3.010-3.325 6.287-3.325 8.953 0 2.549 0.798 4.526 2.136 5.864s3.315 2.136 5.864 2.136c2.549 0 4.526-0.798 5.864-2.136s2.136-3.315 2.136-5.864zM26 20c0 2.974-0.941 5.497-2.722 7.278s-4.304 2.722-7.278 2.722c-2.974 0-5.497-0.941-7.278-2.722s-2.722-4.304-2.722-7.278c0-3.26 1.748-6.948 3.62-9.998 1.899-3.093 4.044-5.718 5.050-6.894 0.164-0.192 0.369-0.346 0.598-0.452l0.175-0.070c0.179-0.060 0.367-0.091 0.556-0.091 0.252 0 0.502 0.055 0.731 0.161 0.172 0.079 0.33 0.185 0.467 0.314l0.131 0.138c1.005 1.176 3.151 3.8 5.050 6.894 1.873 3.051 3.62 6.738 3.62 9.998z">
            </path>
            <path
                d="M20.5 20.5c0-0.552 0.448-1 1-1s1 0.448 1 1c0 1.459-0.58 2.858-1.611 3.889s-2.43 1.611-3.889 1.611c-0.552 0-1-0.448-1-1s0.448-1 1-1c0.928 0 1.819-0.369 2.475-1.025s1.025-1.547 1.025-2.475z">
            </path>
        </symbol>

        <symbol id="icon-manual" viewBox="0 0 32 32">
            <path
                d="M27 21.333v-3.333c0-0.552-0.448-1-1-1h-22c-0.552 0-1-0.448-1-1s0.448-1 1-1h22c1.657 0 3 1.343 3 3v3.333c0 0.552-0.448 1-1 1s-1-0.448-1-1z">
            </path>
            <path
                d="M17.667 4c0-0.92-0.746-1.667-1.667-1.667s-1.667 0.746-1.667 1.667c0 0.92 0.746 1.667 1.667 1.667s1.667-0.746 1.667-1.667zM19.667 4c-0 2.025-1.642 3.667-3.667 3.667s-3.667-1.642-3.667-3.667c0-2.025 1.642-3.667 3.667-3.667s3.667 1.642 3.667 3.667z">
            </path>
            <path
                d="M5.667 4c0-0.92-0.746-1.667-1.667-1.667s-1.667 0.746-1.667 1.667c0 0.92 0.746 1.667 1.667 1.667s1.667-0.746 1.667-1.667zM7.667 4c-0 2.025-1.642 3.667-3.667 3.667s-3.667-1.642-3.667-3.667c0-2.025 1.642-3.667 3.667-3.667s3.667 1.642 3.667 3.667z">
            </path>
            <path
                d="M17.667 28c0-0.92-0.746-1.667-1.667-1.667s-1.667 0.746-1.667 1.667c0 0.92 0.746 1.667 1.667 1.667s1.667-0.746 1.667-1.667zM19.667 28c-0 2.025-1.642 3.667-3.667 3.667s-3.667-1.642-3.667-3.667c0-2.025 1.642-3.667 3.667-3.667s3.667 1.642 3.667 3.667z">
            </path>
            <path
                d="M29.667 28c0-0.92-0.746-1.667-1.667-1.667s-1.667 0.746-1.667 1.667c0 0.92 0.746 1.667 1.667 1.667s1.667-0.746 1.667-1.667zM31.667 28c0 2.025-1.642 3.667-3.667 3.667s-3.667-1.642-3.667-3.667c0-2.025 1.642-3.667 3.667-3.667s3.667 1.642 3.667 3.667z">
            </path>
            <path
                d="M5.667 28c0-0.92-0.746-1.667-1.667-1.667s-1.667 0.746-1.667 1.667c0 0.92 0.746 1.667 1.667 1.667s1.667-0.746 1.667-1.667zM7.667 28c-0 2.025-1.642 3.667-3.667 3.667s-3.667-1.642-3.667-3.667c0-2.025 1.642-3.667 3.667-3.667s3.667 1.642 3.667 3.667z">
            </path>
            <path d="M3 21.333v-10.667c0-0.552 0.448-1 1-1s1 0.448 1 1v10.667c0 0.552-0.448 1-1 1s-1-0.448-1-1z"></path>
            <path d="M15 21.333v-11.333c0-0.552 0.448-1 1-1s1 0.448 1 1v11.333c0 0.552-0.448 1-1 1s-1-0.448-1-1z">
            </path>
        </symbol>

        <symbol id="icon-gas" viewBox="0 0 32 32">
            <path
                d="M28.134 8c0-1.077-0.059-1.859-0.186-2.438-0.124-0.565-0.297-0.856-0.475-1.034s-0.47-0.353-1.034-0.477c-0.579-0.127-1.362-0.184-2.439-0.184h-16c-1.077 0-1.859 0.057-2.438 0.184-0.565 0.124-0.856 0.298-1.034 0.477s-0.352 0.469-0.477 1.034c-0.127 0.579-0.184 1.36-0.184 2.438v16c0 1.077 0.057 1.86 0.184 2.439 0.124 0.565 0.299 0.856 0.477 1.034s0.47 0.351 1.034 0.475c0.579 0.127 1.36 0.186 2.438 0.186h16c1.077 0 1.86-0.059 2.439-0.186 0.564-0.124 0.856-0.297 1.034-0.475s0.351-0.47 0.475-1.034c0.127-0.579 0.186-1.362 0.186-2.439v-16zM22.8 25.345v-0.011c0-0.663 0.537-1.2 1.2-1.2s1.2 0.537 1.2 1.2v0.011c0 0.663-0.537 1.2-1.2 1.2s-1.2-0.537-1.2-1.2zM13.334 24.134c0.662 0 1.2 0.537 1.2 1.2s-0.538 1.2-1.2 1.2h-5.334c-0.662-0-1.2-0.538-1.2-1.2s0.537-1.2 1.2-1.2h5.334zM30.534 24c0 1.129-0.057 2.118-0.24 2.953-0.186 0.849-0.52 1.614-1.124 2.217s-1.368 0.937-2.217 1.124c-0.835 0.183-1.824 0.241-2.953 0.241h-16c-1.129 0-2.117-0.057-2.952-0.241-0.849-0.186-1.615-0.52-2.219-1.124s-0.936-1.369-1.122-2.217c-0.183-0.835-0.241-1.824-0.241-2.953v-16c0-1.129 0.057-2.117 0.241-2.952 0.186-0.849 0.518-1.615 1.122-2.219s1.37-0.936 2.219-1.122c0.835-0.183 1.823-0.241 2.952-0.241h16c1.129 0 2.118 0.057 2.953 0.241 0.848 0.186 1.614 0.519 2.217 1.122s0.937 1.37 1.124 2.219c0.183 0.835 0.24 1.823 0.24 2.952v16z">
            </path>
            <path
                d="M20.134 13.333c-0-2.283-1.852-4.133-4.134-4.133s-4.133 1.85-4.133 4.133c0 2.283 1.85 4.134 4.133 4.134s4.134-1.852 4.134-4.134zM22.534 13.333c0 3.608-2.926 6.534-6.534 6.534s-6.533-2.926-6.533-6.534c0-3.608 2.925-6.533 6.533-6.533s6.534 2.925 6.534 6.533z">
            </path>
            <path
                d="M14.8 20v-2c0-0.663 0.537-1.2 1.2-1.2s1.2 0.538 1.2 1.2v2c0 0.663-0.537 1.2-1.2 1.2s-1.2-0.537-1.2-1.2zM11.333 12.134c0.663 0 1.2 0.537 1.2 1.2s-0.537 1.2-1.2 1.2h-2c-0.663 0-1.2-0.537-1.2-1.2s0.537-1.2 1.2-1.2h2zM22.666 12.134c0.663 0 1.2 0.537 1.2 1.2s-0.537 1.2-1.2 1.2h-2c-0.662-0-1.2-0.538-1.2-1.2s0.538-1.2 1.2-1.2h2zM14.8 8.667v-2c0-0.663 0.537-1.2 1.2-1.2s1.2 0.537 1.2 1.2v2c0 0.663-0.537 1.2-1.2 1.2s-1.2-0.537-1.2-1.2z">
            </path>
        </symbol>
    </defs>
</svg>